<mxfile host="app.diagrams.net" modified="2023-09-02T02:16:47.547Z" agent="Mozilla/5.0 (X11; Linux x86_64) AppleWebKit/537.36 (KHTML, like Gecko) Chrome/116.0.0.0 Safari/537.36" version="21.7.2" etag="rIVSfE7h0zzOMw7pxNcL" type="github">
  <diagram name="Page-1" id="l3tx_5mGwVh3lnYaRGse">
    <mxGraphModel>
      <root>
        <mxCell id="0" />
        <mxCell id="1" parent="0" />
      </root>
    </mxGraphModel>
  </diagram>
</mxfile>
